<svg width="20" height="20" viewBox="0 0 20 20" fill="none" xmlns="http://www.w3.org/2000/svg">
<path d="M3.3 9.48331C3.53333 8.25831 4.68333 7.41665 5.93333 7.41665H8.375C8.80833 7.41665 9.16667 7.05831 9.16667 6.62498C9.16667 6.19165 8.80833 5.83331 8.375 5.83331H6.01667C3.84167 5.83331 1.9 7.42498 1.69167 9.59165C1.45 12.075 3.4 14.1666 5.83333 14.1666H8.375C8.80833 14.1666 9.16667 13.8083 9.16667 13.375C9.16667 12.9416 8.80833 12.5833 8.375 12.5833H5.83333C4.24167 12.5833 2.98334 11.1333 3.3 9.48331ZM7.5 10.8333H12.5C12.9583 10.8333 13.3333 10.4583 13.3333 9.99998C13.3333 9.54165 12.9583 9.16665 12.5 9.16665H7.5C7.04167 9.16665 6.66667 9.54165 6.66667 9.99998C6.66667 10.4583 7.04167 10.8333 7.5 10.8333ZM13.9833 5.83331H11.625C11.1917 5.83331 10.8333 6.19165 10.8333 6.62498C10.8333 7.05831 11.1917 7.41665 11.625 7.41665H14.0667C15.3167 7.41665 16.4667 8.25831 16.7 9.48331C17.0167 11.1333 15.7583 12.5833 14.1667 12.5833H11.625C11.1917 12.5833 10.8333 12.9416 10.8333 13.375C10.8333 13.8083 11.1917 14.1666 11.625 14.1666H14.1667C16.6 14.1666 18.55 12.075 18.3167 9.59165C18.1083 7.42498 16.1583 5.83331 13.9833 5.83331Z" fill="#999999"/>
</svg>
