<svg width="16" height="16" viewBox="0 0 16 16" fill="none" xmlns="http://www.w3.org/2000/svg">
<path d="M8.00004 1.33331C4.32004 1.33331 1.33337 4.31998 1.33337 7.99998C1.33337 11.68 4.32004 14.6666 8.00004 14.6666C11.68 14.6666 14.6667 11.68 14.6667 7.99998C14.6667 4.31998 11.68 1.33331 8.00004 1.33331ZM7.33337 13.2866C4.70004 12.96 2.66671 10.72 2.66671 7.99998C2.66671 7.58665 2.72004 7.19331 2.80671 6.80665L6.00004 9.99998V10.6666C6.00004 11.4 6.60004 12 7.33337 12V13.2866ZM11.9334 11.5933C11.76 11.0533 11.2667 10.6666 10.6667 10.6666H10V8.66665C10 8.29998 9.70004 7.99998 9.33337 7.99998H5.33337V6.66665H6.66671C7.03337 6.66665 7.33337 6.36665 7.33337 5.99998V4.66665H8.66671C9.40004 4.66665 10 4.06665 10 3.33331V3.05998C11.9534 3.85331 13.3334 5.76665 13.3334 7.99998C13.3334 9.38665 12.8 10.6466 11.9334 11.5933Z" fill="#999999"/>
</svg>
