<svg width="16" height="16" viewBox="0 0 16 16" fill="none" xmlns="http://www.w3.org/2000/svg">
<path d="M8.00004 4.66667V3.33333C8.00004 2.6 7.40004 2 6.66671 2H2.66671C1.93337 2 1.33337 2.6 1.33337 3.33333V12.6667C1.33337 13.4 1.93337 14 2.66671 14H13.3334C14.0667 14 14.6667 13.4 14.6667 12.6667V6C14.6667 5.26667 14.0667 4.66667 13.3334 4.66667H8.00004ZM6.66671 12.6667H2.66671V11.3333H6.66671V12.6667ZM6.66671 10H2.66671V8.66667H6.66671V10ZM6.66671 7.33333H2.66671V6H6.66671V7.33333ZM6.66671 4.66667H2.66671V3.33333H6.66671V4.66667ZM13.3334 12.6667H8.00004V6H13.3334V12.6667ZM12 7.33333H9.33337V8.66667H12V7.33333ZM12 10H9.33337V11.3333H12V10Z" fill="#999999"/>
</svg>
