<svg width="45" height="44" viewBox="0 0 45 44" fill="none" xmlns="http://www.w3.org/2000/svg">
<g clip-path="url(#clip0)">
<rect width="45" height="44.4079" rx="9" fill="#262627"/>
<path d="M23.432 35.384C21.896 35.384 20.2 35.32 18.344 35.192C16.52 35.064 14.92 34.904 13.544 34.712V29.144C16.296 29.4 18.824 29.528 21.128 29.528C22.664 29.528 23.752 29.48 24.392 29.384C25.032 29.288 25.432 29.128 25.592 28.904C25.784 28.648 25.88 28.232 25.88 27.656C25.88 27.176 25.816 26.84 25.688 26.648C25.592 26.424 25.384 26.264 25.064 26.168C24.744 26.072 24.184 25.976 23.384 25.88L17.672 25.16C15.752 24.904 14.456 24.184 13.784 23C13.144 21.784 12.824 19.976 12.824 17.576C12.824 15.432 13.24 13.832 14.072 12.776C14.904 11.688 16.024 10.984 17.432 10.664C18.872 10.312 20.728 10.136 23 10.136C24.568 10.136 26.168 10.2 27.8 10.328C29.432 10.456 30.744 10.632 31.736 10.856V16.376C29.112 16.12 26.76 15.992 24.68 15.992C23.272 15.992 22.264 16.024 21.656 16.088C21.048 16.152 20.616 16.312 20.36 16.568C20.136 16.792 20.024 17.176 20.024 17.72C20.024 18.2 20.056 18.536 20.12 18.728C20.216 18.92 20.408 19.064 20.696 19.16C21.016 19.256 21.528 19.352 22.232 19.448L27.896 20.12C29.144 20.28 30.12 20.568 30.824 20.984C31.528 21.368 32.072 22.072 32.456 23.096C32.872 24.088 33.08 25.544 33.08 27.464C33.08 29.736 32.68 31.448 31.88 32.6C31.112 33.752 30.056 34.504 28.712 34.856C27.368 35.208 25.608 35.384 23.432 35.384Z" fill="white"/>
</g>
<defs>
<clipPath id="clip0">
<rect width="45" height="44" fill="white"/>
</clipPath>
</defs>
</svg>
